0
SECTION
2
HEADER
9
$INSUNITS
70
1
9
$ACADVER
1
AC1014
9
$HANDSEED
5
FFFF
0
ENDSEC
0
SECTION
2
TABLES
0
TABLE
2
VPORT
5
8
100
AcDbSymbolTable
0
ENDTAB
0
TABLE
2
LTYPE
5
5
100
AcDbSymbolTable
0
LTYPE
5
14
100
AcDbSymbolTableRecord
100
AcDbLinetypeTableRecord
2
BYBLOCK
70
0
0
LTYPE
5
15
100
AcDbSymbolTableRecord
100
AcDbLinetypeTableRecord
2
BYLAYER
70
0
0
LTYPE
5
16
100
AcDbSymbolTableRecord
100
AcDbLinetypeTableRecord
2
DASHED
70
0
3
Dashed __ __ __ __ __ __ __ __ __ __ __ __ __ _
72
65
73
2
40
0.75
49
0.5
74
0
49
-0.25
74
0
0
ENDTAB
0
TABLE
2
LAYER
5
2
100
AcDbSymbolTable
70
2
0
LAYER
5
50
100
AcDbSymbolTableRecord
100
AcDbLayerTableRecord
2
0
70
0
62
7
6
CONTINUOUS
0
ENDTAB
0
TABLE
2
STYLE
5
3
100
AcDbSymbolTable
70
1
0
STYLE
5
11
100
AcDbSymbolTableRecord
100
AcDbTextStyleTableRecord
2
STANDARD
70
0
0
ENDTAB
0
TABLE
2
VIEW
5
6
100
AcDbSymbolTable
70
0
0
ENDTAB
0
TABLE
2
UCS
5
7
100
AcDbSymbolTable
70
0
0
ENDTAB
0
TABLE
2
APPID
5
9
100
AcDbSymbolTable
70
2
0
APPID
5
12
100
AcDbSymbolTableRecord
100
AcDbRegAppTableRecord
2
ACAD
70
0
0
ENDTAB
0
TABLE
2
DIMSTYLE
5
A
100
AcDbSymbolTable
70
1
0
ENDTAB
0
TABLE
2
BLOCK_RECORD
5
1
100
AcDbSymbolTable
70
1
0
BLOCK_RECORD
5
1F
100
AcDbSymbolTableRecord
100
AcDbBlockTableRecord
2
*MODEL_SPACE
0
BLOCK_RECORD
5
1B
100
AcDbSymbolTableRecord
100
AcDbBlockTableRecord
2
*PAPER_SPACE
0
ENDTAB
0
ENDSEC
0
SECTION
2
BLOCKS
0
BLOCK
5
20
100
AcDbEntity
100
AcDbBlockBegin
2
*MODEL_SPACE
0
ENDBLK
5
21
100
AcDbEntity
100
AcDbBlockEnd
0
BLOCK
5
1C
100
AcDbEntity
100
AcDbBlockBegin
2
*PAPER_SPACE
0
ENDBLK
5
1D
100
AcDbEntity
100
AcDbBlockEnd
0
ENDSEC
0
SECTION
2
ENTITIES
0
LWPOLYLINE
5
100
100
AcDbEntity
8
0
100
AcDbPolyline
90
22
70
1
43
0.0
10
0.19685039370078755
20
0.23622047244094493
42
0.41421356237309437
10
0.23622047244094502
20
0.27559055118110243
10
0.23622047244094502
20
0.98425196850393692
42
0.4142135623730947
10
0.19685039370078755
20
1.0236220472440944
10
0.15748031496063011
20
1.0236220472440944
42
-0.41421356237309503
10
0.11811023622047262
20
1.0629921259842519
10
0.11811023622047306
20
1.6141732283464567
42
-0.41421356237309503
10
0.15748031496063039
20
1.6535433070866141
10
0.19685039370078755
20
1.6535433070866141
42
0.41421356237309537
10
0.23622047244094493
20
1.6929133858267715
10
0.23622047244094502
20
2.7165354330708662
42
0.4142135623731022
10
0.19685039370078738
20
2.7559055118110236
10
-3.0671066213789953
20
2.7559055118110236
42
0.41421356237309243
10
-3.1064767001191522
20
2.7165354330708662
10
-3.1064767001191522
20
2.4227079131145723
42
0.25578095421083807
10
-3.0883237251018421
20
2.389544113428467
42
-0.50399253819471923
10
-2.9163638426525731
20
-0.13629546306711859
42
0.69761500239532792
10
-2.8653316410844138
20
-0.27500000000000197
10
0.078740157480315029
20
-0.27499999999999258
42
0.41421356237309459
10
0.11811023622047251
20
-0.23562992125983509
10
0.11811023622047249
20
0.19685039370078738
42
-0.41421356237309503
10
0.15748031496062995
20
0.23622047244094485
0
CIRCLE
5
101
100
AcDbEntity
8
0
100
AcDbCircle
10
-0.15748031496062975
20
1.0431102362204725
30
0
40
0.063976377952755889
210
0
220
-0
230
1
0
CIRCLE
5
102
100
AcDbEntity
8
0
100
AcDbCircle
10
-0.94488188976377929
20
1.0431102362204725
30
0
40
0.063976377952755931
210
0
220
-0
230
1
0
CIRCLE
5
103
100
AcDbEntity
8
0
100
AcDbCircle
10
-0.15748031496062975
20
1.0431102362204725
30
0
40
0.063976377952755889
210
-0
220
0
230
1
0
CIRCLE
5
104
100
AcDbEntity
8
0
100
AcDbCircle
10
-0.94488188976377929
20
1.0431102362204725
30
0
40
0.063976377952755931
210
-0
220
0
230
1
0
LWPOLYLINE
5
105
100
AcDbEntity
8
0
100
AcDbPolyline
90
4
70
1
43
0.0
10
0.039370078740157598
20
0.86594488188976393
10
0.039370078740157598
20
1.2202755905511811
10
-1.1417322834645667
20
1.2202755905511811
10
-1.1417322834645669
20
0.86594488188976393
0
LINE
5
106
100
AcDbEntity
8
0
100
AcDbLine
10
0.23622047244094499
20
1.9685039370078743
30
0
11
-2.6485773092949945
21
1.9685039370078743
31
0
0
ENDSEC
0
SECTION
2
OBJECTS
0
DICTIONARY
5
C
100
AcDbDictionary
3
ACAD_GROUP
350
D
3
ACAD_MLINESTYLE
350
17
0
DICTIONARY
5
D
100
AcDbDictionary
0
DICTIONARY
5
1A
330
C
100
AcDbDictionary
0
DICTIONARY
5
17
100
AcDbDictionary
0
ENDSEC
0
EOF
